<mxfile host="app.diagrams.net" agent="Mozilla/5.0 (Windows NT 10.0; Win64; x64) AppleWebKit/537.36 (KHTML, like Gecko) Chrome/128.0.0.0 Safari/537.36" version="24.7.12">
  <diagram name="Page-1" id="KiPqW6jJqt-szqUVUywa">
    <mxGraphModel dx="2234" dy="1222" grid="0" gridSize="10" guides="1" tooltips="1" connect="1" arrows="1" fold="1" page="0" pageScale="1" pageWidth="850" pageHeight="1100" math="0" shadow="0">
      <root>
        <mxCell id="0" />
        <mxCell id="1" parent="0" />
        <mxCell id="8M9derKUMyDQeJgVNwB6-1" value="START" style="rounded=1;whiteSpace=wrap;html=1;" vertex="1" parent="1">
          <mxGeometry x="-430" y="-258" width="120" height="60" as="geometry" />
        </mxCell>
        <mxCell id="8M9derKUMyDQeJgVNwB6-2" value="STOP" style="rounded=1;whiteSpace=wrap;html=1;" vertex="1" parent="1">
          <mxGeometry x="-9" y="57" width="120" height="60" as="geometry" />
        </mxCell>
        <mxCell id="8M9derKUMyDQeJgVNwB6-3" value="max_number: int = 1" style="rounded=0;whiteSpace=wrap;html=1;" vertex="1" parent="1">
          <mxGeometry x="-431" y="-182" width="180" height="70" as="geometry" />
        </mxCell>
        <mxCell id="8M9derKUMyDQeJgVNwB6-34" style="edgeStyle=none;curved=1;rounded=0;orthogonalLoop=1;jettySize=auto;html=1;fontSize=12;startSize=8;endSize=8;" edge="1" parent="1" source="8M9derKUMyDQeJgVNwB6-4">
          <mxGeometry relative="1" as="geometry">
            <mxPoint x="-307.3584026596636" y="23.890689541461143" as="targetPoint" />
          </mxGeometry>
        </mxCell>
        <mxCell id="8M9derKUMyDQeJgVNwB6-35" style="edgeStyle=none;curved=1;rounded=0;orthogonalLoop=1;jettySize=auto;html=1;fontSize=12;startSize=8;endSize=8;" edge="1" parent="1" source="8M9derKUMyDQeJgVNwB6-4">
          <mxGeometry relative="1" as="geometry">
            <mxPoint x="-95" y="-55.5" as="targetPoint" />
          </mxGeometry>
        </mxCell>
        <mxCell id="8M9derKUMyDQeJgVNwB6-4" value="for 10 times" style="ellipse;whiteSpace=wrap;html=1;aspect=fixed;" vertex="1" parent="1">
          <mxGeometry x="-397" y="-99" width="87" height="87" as="geometry" />
        </mxCell>
        <mxCell id="8M9derKUMyDQeJgVNwB6-44" value="" style="edgeStyle=none;curved=1;rounded=0;orthogonalLoop=1;jettySize=auto;html=1;fontSize=12;startSize=8;endSize=8;" edge="1" parent="1" source="8M9derKUMyDQeJgVNwB6-7" target="8M9derKUMyDQeJgVNwB6-43">
          <mxGeometry relative="1" as="geometry" />
        </mxCell>
        <mxCell id="8M9derKUMyDQeJgVNwB6-45" value="YES" style="edgeLabel;html=1;align=center;verticalAlign=middle;resizable=0;points=[];fontSize=12;" vertex="1" connectable="0" parent="8M9derKUMyDQeJgVNwB6-44">
          <mxGeometry x="-0.6264" relative="1" as="geometry">
            <mxPoint as="offset" />
          </mxGeometry>
        </mxCell>
        <mxCell id="8M9derKUMyDQeJgVNwB6-7" value="rand_int &amp;gt; max_number&lt;div&gt;?&lt;/div&gt;" style="rhombus;whiteSpace=wrap;html=1;" vertex="1" parent="1">
          <mxGeometry x="-376" y="183" width="163" height="147" as="geometry" />
        </mxCell>
        <mxCell id="8M9derKUMyDQeJgVNwB6-14" value="" style="edgeStyle=none;curved=1;rounded=0;orthogonalLoop=1;jettySize=auto;html=1;fontSize=12;startSize=8;endSize=8;exitX=0.442;exitY=1.017;exitDx=0;exitDy=0;exitPerimeter=0;" edge="1" parent="1" source="8M9derKUMyDQeJgVNwB6-37" target="8M9derKUMyDQeJgVNwB6-2">
          <mxGeometry relative="1" as="geometry">
            <mxPoint x="62" y="-68" as="sourcePoint" />
          </mxGeometry>
        </mxCell>
        <mxCell id="8M9derKUMyDQeJgVNwB6-22" value="" style="endArrow=none;html=1;rounded=0;fontSize=12;startSize=8;endSize=8;curved=1;" edge="1" parent="1">
          <mxGeometry width="50" height="50" relative="1" as="geometry">
            <mxPoint x="-319.5" y="396" as="sourcePoint" />
            <mxPoint x="-271.5" y="396" as="targetPoint" />
          </mxGeometry>
        </mxCell>
        <mxCell id="8M9derKUMyDQeJgVNwB6-23" value="" style="endArrow=none;html=1;rounded=0;fontSize=12;startSize=8;endSize=8;curved=1;" edge="1" parent="1">
          <mxGeometry width="50" height="50" relative="1" as="geometry">
            <mxPoint x="-326.5" y="406" as="sourcePoint" />
            <mxPoint x="-252.5" y="406" as="targetPoint" />
          </mxGeometry>
        </mxCell>
        <mxCell id="8M9derKUMyDQeJgVNwB6-30" value="" style="edgeStyle=none;curved=1;rounded=0;orthogonalLoop=1;jettySize=auto;html=1;fontSize=12;startSize=8;endSize=8;" edge="1" parent="1">
          <mxGeometry relative="1" as="geometry">
            <mxPoint x="-292" y="343" as="sourcePoint" />
            <mxPoint x="-292" y="383" as="targetPoint" />
          </mxGeometry>
        </mxCell>
        <mxCell id="8M9derKUMyDQeJgVNwB6-48" value="NO" style="edgeLabel;html=1;align=center;verticalAlign=middle;resizable=0;points=[];fontSize=12;" vertex="1" connectable="0" parent="8M9derKUMyDQeJgVNwB6-30">
          <mxGeometry x="-0.5" y="2" relative="1" as="geometry">
            <mxPoint as="offset" />
          </mxGeometry>
        </mxCell>
        <mxCell id="8M9derKUMyDQeJgVNwB6-37" value="max_number" style="shape=document;whiteSpace=wrap;html=1;boundedLbl=1;" vertex="1" parent="1">
          <mxGeometry x="-90" y="-72" width="90" height="51" as="geometry" />
        </mxCell>
        <mxCell id="8M9derKUMyDQeJgVNwB6-42" value="rand_int = random 1-100" style="rounded=0;whiteSpace=wrap;html=1;" vertex="1" parent="1">
          <mxGeometry x="-381" y="30" width="180" height="70" as="geometry" />
        </mxCell>
        <mxCell id="8M9derKUMyDQeJgVNwB6-43" value="max_number = rand_int" style="rounded=0;whiteSpace=wrap;html=1;" vertex="1" parent="1">
          <mxGeometry x="-150" y="224" width="180" height="70" as="geometry" />
        </mxCell>
        <mxCell id="8M9derKUMyDQeJgVNwB6-46" value="" style="endArrow=classic;html=1;rounded=0;fontSize=12;startSize=8;endSize=8;curved=1;exitX=0.456;exitY=0.986;exitDx=0;exitDy=0;exitPerimeter=0;" edge="1" parent="1" source="8M9derKUMyDQeJgVNwB6-43">
          <mxGeometry width="50" height="50" relative="1" as="geometry">
            <mxPoint x="-75" y="301" as="sourcePoint" />
            <mxPoint x="-271" y="381" as="targetPoint" />
          </mxGeometry>
        </mxCell>
        <mxCell id="8M9derKUMyDQeJgVNwB6-47" value="rand_int" style="shape=document;whiteSpace=wrap;html=1;boundedLbl=1;" vertex="1" parent="1">
          <mxGeometry x="-350" y="117" width="102" height="67" as="geometry" />
        </mxCell>
      </root>
    </mxGraphModel>
  </diagram>
</mxfile>
